<svg id="eyETL5aGVv71" xmlns="http://www.w3.org/2000/svg" xmlns:xlink="http://www.w3.org/1999/xlink" viewBox="0 0 300 300" shape-rendering="geometricPrecision" text-rendering="geometricPrecision"><path d="M38.927098,68.088033c.458505,79.866718,0,120.313935,0,116.918845L85.694635,150q-42.64099-28.26685-41.953232-28.26685t35.075653-27.510316Q38.468593,-11.778685,38.927098,68.088033Z" fill="none" stroke="#3f5787" stroke-width="0.6"/><path d="M99.449794,179.504814c.458505-42.641182.458505-65.505425,0-57.771664q27.510316,27.510316,11.004126,0" fill="none" stroke="#3f5787" stroke-width="0.6"/><path d="M170.976616,121.73315c-4.126547,81.843191-122.077028,155.433288-71.526822,68.088033s72.902338-68.088033,71.526822-68.088033Z" fill="none" stroke="#3f5787" stroke-width="0.6"/><path d="M195.735901,57.083906q-1.375516,149.243467-.687758,150.618983-14.167813-90.096287,45.392022-101.788171c59.559835-11.691884-82.530949-.687758-82.530949,0" fill="none" stroke="#3f5787" stroke-width="0.6"/><path d="M272.764787,94.222834q-1.375516,114.85557-1.375516,114.167812-6.18982-174.00275,3.43879-154.057771" transform="translate(-1.375515 2.751031)" fill="none" stroke="#3f5787" stroke-width="0.6"/><path d="M273.452546,63.961486q0,17.881705,0,17.881705" transform="translate(.000001 0.000001)" fill="none" stroke="#3f5787" stroke-width="0.6"/></svg>
